<svg width="209" height="198" viewBox="0 0 209 198" fill="none" xmlns="http://www.w3.org/2000/svg">
<path fill-rule="evenodd" clip-rule="evenodd" d="M22.8656 158.165C16.9089 149.877 15.5925 140.606 19.9695 137.494C23.7541 134.807 30.5665 137.625 36.227 143.849L58.9347 130.09L89.508 109.713C87.5992 106.633 86.579 103.128 86.5132 99.5569L49.4896 100.507L22.9972 102.866C22.1086 111.252 18.1923 117.575 13.5192 117.608C8.15484 117.608 3.77783 109.352 3.77783 99.1638C3.77783 88.9425 8.08902 80.6869 13.4533 80.6541C18.1265 80.6541 22.0099 86.8786 22.9643 95.2325L49.4896 97.1326L86.5461 98.2137C86.7436 94.5773 87.9283 90.9737 90.1991 87.7959C92.6674 84.356 96.0242 81.899 99.743 80.5886L88.1258 45.5676L78.7136 20.8006C70.4203 22.2749 63.2789 20.3092 61.9625 15.8866C60.4486 10.7759 67.1622 4.25658 77.0023 1.37365C86.8423 -1.50927 96.0242 0.292557 97.5709 5.4032C98.8873 9.85863 93.9179 15.3952 86.0854 18.6384L91.3839 44.5848L101.059 80.1627C104.515 79.2126 108.168 79.1471 111.689 80.0972L122.55 45.1089L129.329 19.523C121.727 15.9193 117.054 10.219 118.567 5.82908C120.312 0.783965 129.592 -0.624737 139.268 2.68408C148.976 5.99289 155.426 12.7743 153.682 17.8194C152.168 22.2421 144.895 23.8474 136.602 21.98L125.808 46.1573L113.071 80.4575C114.816 81.0472 116.494 81.899 118.074 83.0129C119.555 84.0612 120.838 85.2733 121.957 86.6165L150.918 64.6015L171.355 47.6643C167.241 40.3259 166.747 32.9876 170.565 30.3012C174.942 27.1889 183.301 31.415 189.258 39.7035C195.214 47.9919 196.531 57.2631 192.154 60.3753C188.336 63.0945 181.458 60.2115 175.831 53.9215L152.925 67.3861L122.846 87.7631C125.018 90.8099 126.268 94.4135 126.466 98.0827L162.601 96.8706L189.093 94.8722C190.015 86.5182 193.898 80.261 198.571 80.261C203.936 80.261 208.313 88.5166 208.313 98.7379C208.313 108.959 204.001 117.215 198.637 117.248C193.964 117.248 190.015 110.958 189.093 102.571L162.601 100.31L126.466 99.5569C126.433 103.193 125.38 106.863 123.241 110.106L153.287 129.926L176.061 143.587C181.656 137.33 188.468 134.48 192.286 137.166C196.663 140.245 195.412 149.517 189.488 157.838C183.564 166.159 175.205 170.418 170.828 167.338C167.011 164.652 167.471 157.248 171.618 149.877L151.346 132.743L122.451 111.318C119.851 114.758 116.33 117.117 112.446 118.296L123.504 152.563L133.245 177.199C141.604 175.692 148.779 177.625 150.128 182.113C151.642 187.224 144.928 193.743 135.088 196.626C125.248 199.509 116.066 197.707 114.52 192.597C113.203 188.141 118.107 182.67 125.873 179.394L120.213 153.546L111.031 118.722C107.444 119.541 103.659 119.41 100.072 118.198L89.0473 152.76L82.6298 178.444C90.2978 182.048 95.0369 187.781 93.523 192.171C91.7788 197.216 82.4982 198.625 72.8227 195.316C63.1143 192.007 56.664 185.226 58.4082 180.181C59.922 175.791 67.1293 174.153 75.3568 175.987L85.8221 151.646L98.7557 117.706C97.4393 117.149 96.1558 116.461 94.971 115.61C93.1281 114.299 91.5813 112.759 90.3308 111.023L60.9423 133.005L40.7356 150.237C44.9152 157.609 45.4088 165.012 41.5913 167.699C37.2143 170.811 28.8551 166.585 22.8985 158.297L22.8656 158.165Z" fill="#0D558F"/>
<path fill-rule="evenodd" clip-rule="evenodd" d="M6.17052 28.0006C12.95 18.4673 22.4938 13.6188 27.4961 17.1569C31.8402 20.2364 31.3136 28.6231 26.6734 37.0098L50.1052 56.273L83.9694 81.7934C83.772 82.0227 83.6074 82.2848 83.4099 82.5141C83.2783 82.7107 83.1467 82.8745 83.015 83.0711L47.8344 59.4507L21.6052 44.1843C15.1878 51.4244 7.32237 54.7332 2.97827 51.6537C-2.02403 48.1156 -0.575999 37.534 6.20343 28.0334L6.17052 28.0006Z" fill="#ED4599"/>
</svg>
