<svg width="350" height="64" viewBox="0 0 350 64" fill="none" xmlns="http://www.w3.org/2000/svg">
<path d="M296.079 49.1744V45.484C297.815 45.484 299.438 45.1544 300.931 44.4951C302.424 43.8357 303.767 42.8559 304.98 41.5647C306.193 40.2827 307.098 38.845 307.704 37.27C308.311 35.6949 308.609 33.9917 308.609 32.1603C308.609 30.3288 308.311 28.6439 307.704 27.078C307.098 25.5029 306.193 24.0744 304.989 22.7924C303.786 21.5012 302.433 20.5305 300.94 19.8804C299.438 19.2211 297.815 18.8914 296.07 18.8914V15.3842C297.199 15.3842 298.3 15.4849 299.363 15.6955C300.436 15.9061 301.481 16.2175 302.498 16.6296C303.506 17.0416 304.467 17.5544 305.362 18.1588C306.258 18.7632 307.098 19.4592 307.872 20.2558L307.891 20.2741C308.693 21.0708 309.402 21.9224 310.009 22.8199C310.615 23.7264 311.138 24.7063 311.557 25.741C311.977 26.7758 312.294 27.8289 312.509 28.9094C312.724 29.9808 312.826 31.098 312.826 32.2427C312.826 33.3873 312.724 34.532 312.509 35.6217C312.294 36.7114 311.977 37.7828 311.557 38.8176C311.138 39.8523 310.624 40.823 309.999 41.7479C309.384 42.6636 308.684 43.5244 307.881 44.3028L307.863 44.3211C307.088 45.1178 306.249 45.8137 305.353 46.4181C304.448 47.0225 303.496 47.5353 302.489 47.9473C301.481 48.3594 300.436 48.6708 299.354 48.8814C298.29 49.092 297.19 49.1927 296.061 49.1927L296.079 49.1744ZM321.288 30.6859V48.5334H325.225V29.5596C325.225 28.0486 325.459 26.6659 325.925 25.4114C326.392 24.1385 327.101 23.0122 328.034 22.0415C328.976 21.0525 330.049 20.3108 331.252 19.8071C332.456 19.3126 333.781 19.0654 335.218 19.0654C336.654 19.0654 337.998 19.3126 339.201 19.8071C340.405 20.3016 341.478 21.0434 342.411 22.0415C343.344 23.0213 344.034 24.1477 344.501 25.4205C344.958 26.6659 345.182 28.0486 345.182 29.5596V48.5334H349.091V30.6859C349.091 28.2684 348.774 26.1165 348.139 24.2392C347.514 22.3895 346.572 20.787 345.322 19.4225C344.081 18.0764 342.625 17.06 340.965 16.3915C339.285 15.7138 337.382 15.375 335.236 15.375C333.09 15.375 331.187 15.7138 329.508 16.3915C327.838 17.0691 326.373 18.0764 325.123 19.4317C323.863 20.787 322.912 22.3895 322.277 24.2484C321.633 26.1256 321.316 28.2776 321.316 30.6859H321.288ZM0.00933173 44.1288V48.5334H15.1702C17.7918 48.5334 20.0963 48.2495 22.0928 47.6909C24.0427 47.1415 25.7034 46.3265 27.0656 45.246C28.4091 44.1837 29.4073 42.9017 30.0791 41.4182C30.7602 39.9073 31.096 38.1582 31.096 36.1803C31.096 34.88 30.9188 33.6712 30.5549 32.554C30.2004 31.4368 29.6686 30.4021 28.9502 29.4497C28.2225 28.4607 27.2895 27.5267 26.1606 26.6567C25.0037 25.7593 23.6322 24.9077 22.0555 24.1202L14.4891 20.3474C12.5205 19.3493 10.8971 18.461 9.63762 17.6826C8.32213 16.8677 7.37049 16.1534 6.79205 15.5398C6.17629 14.8988 5.7098 14.1846 5.40192 13.4062C5.08471 12.6278 4.9261 11.7945 4.9261 10.9246C4.9261 9.95393 5.10337 9.07483 5.46723 8.27815C5.83109 7.47231 6.38154 6.75805 7.09993 6.15367C7.80899 5.55845 8.63001 5.1189 9.57232 4.81671C10.4866 4.53284 11.4942 4.38632 12.6045 4.38632H28.6796V0H14.8903C12.5392 0 10.4493 0.256403 8.63001 0.778366C6.84803 1.28201 5.30863 2.04207 4.02112 3.04936C2.75228 4.03835 1.80997 5.20132 1.18488 6.52912C0.550459 7.87523 0.242575 9.42281 0.242575 11.1627C0.242575 12.3714 0.410513 13.5069 0.755714 14.5692C1.10091 15.6223 1.62338 16.6204 2.31378 17.5544C3.02284 18.5068 3.92783 19.4134 5.0194 20.2558C6.12964 21.1166 7.45447 21.9316 8.98454 22.7008L17.6799 27.0688C19.2659 27.8563 20.6094 28.6072 21.6916 29.3215C22.8299 30.0632 23.7162 30.7775 24.3413 31.4643C24.9944 32.1786 25.4889 32.9569 25.8247 33.8177C26.1606 34.6693 26.3285 35.5759 26.3285 36.5374C26.3285 37.7553 26.1139 38.8359 25.6754 39.7974C25.2276 40.7772 24.5559 41.6014 23.6696 42.2699C21.9902 43.5244 19.6018 44.1471 16.5136 44.1471H0L0.00933173 44.1288ZM296.07 15.375V18.8822C294.335 18.8822 292.721 19.2119 291.228 19.8712C289.744 20.5214 288.392 21.4921 287.179 22.7832C285.966 24.0744 285.061 25.5029 284.454 27.078C283.848 28.6439 283.549 30.338 283.549 32.1603C283.549 33.9825 283.848 35.6949 284.454 37.27C285.061 38.845 285.966 40.2827 287.179 41.5647C288.392 42.8651 289.744 43.8449 291.228 44.4951C292.721 45.1544 294.344 45.484 296.079 45.484V49.1744C294.95 49.1744 293.859 49.0737 292.805 48.8631C291.732 48.6525 290.705 48.3411 289.726 47.9382C288.737 47.5261 287.785 47.0225 286.89 46.4089C285.994 45.8045 285.145 45.0994 284.343 44.2936C283.531 43.4878 282.812 42.6178 282.187 41.7021C281.562 40.7772 281.04 39.8066 280.611 38.7809C280.181 37.7462 279.864 36.6839 279.65 35.5942C279.435 34.5045 279.332 33.3873 279.332 32.2152C279.332 31.0431 279.435 29.9717 279.65 28.9003C279.864 27.8197 280.181 26.7758 280.611 25.7685C281.049 24.7429 281.572 23.7722 282.197 22.8565C282.822 21.9316 283.54 21.0617 284.352 20.2467C285.154 19.4408 286.003 18.7449 286.899 18.1314C287.795 17.527 288.746 17.0142 289.735 16.6021C290.715 16.1992 291.741 15.8878 292.814 15.6772C293.868 15.4666 294.969 15.3659 296.089 15.3659L296.07 15.375ZM67.9578 33.8452V16.016H64.0487V34.9898C64.0487 36.4916 63.8248 37.8744 63.3676 39.1198C62.9104 40.3835 62.2107 41.5098 61.2777 42.4896C60.3541 43.4786 59.2812 44.2203 58.0683 44.724C56.8648 45.2185 55.5306 45.4657 54.0845 45.4657C52.6384 45.4657 51.3229 45.2185 50.1194 44.724C48.9158 44.2295 47.8429 43.4878 46.9006 42.4896C45.9676 41.5098 45.2586 40.3926 44.7921 39.1198C44.3256 37.8652 44.0924 36.4825 44.0924 34.9807V16.0069H40.1552V33.836C40.1552 35.9788 40.3885 37.8835 40.8456 39.5776C41.2934 41.2351 41.9652 42.6728 42.8608 43.8907C43.7471 45.0994 44.8667 46.1159 46.2289 46.9492C47.6097 47.7917 49.2424 48.4418 51.1176 48.8997L52.032 49.1195V64H56.0064V49.1195L56.9207 48.8997C58.796 48.4418 60.4287 47.7917 61.8189 46.94C63.181 46.1067 64.3099 45.0811 65.2056 43.8632C66.1105 42.6361 66.7823 41.1985 67.2394 39.5501C67.7059 37.8652 67.9392 35.9605 67.9392 33.836L67.9578 33.8452ZM78.1459 29.5504V48.5242H82.0831V28.3783C82.0831 27.0322 82.279 25.8051 82.6802 24.6879C83.0907 23.5524 83.6971 22.5451 84.5181 21.6844C85.3391 20.8144 86.3094 20.1551 87.401 19.7156C88.4739 19.2852 89.6775 19.0654 90.993 19.0654C92.3085 19.0654 93.4747 19.2852 94.5569 19.7156C95.6485 20.1551 96.6188 20.8053 97.4585 21.6752C98.2981 22.536 98.9232 23.5433 99.3431 24.6788C99.7536 25.796 99.9588 27.0322 99.9588 28.3783V48.5242H103.868V28.3783C103.868 27.0322 104.073 25.796 104.474 24.6879C104.885 23.5524 105.51 22.5451 106.331 21.6844C107.161 20.8144 108.122 20.1551 109.214 19.7156C110.296 19.276 111.481 19.0654 112.787 19.0654C114.093 19.0654 115.278 19.2852 116.361 19.7156C117.452 20.1551 118.413 20.8144 119.243 21.6844C120.064 22.5451 120.69 23.5524 121.1 24.6879C121.501 25.796 121.706 27.0322 121.706 28.3783V48.5242H125.616V29.5504C125.616 27.3069 125.317 25.3198 124.729 23.5799C124.142 21.8675 123.274 20.3749 122.117 19.1203C120.96 17.8749 119.617 16.9318 118.087 16.3182C116.538 15.6864 114.774 15.375 112.806 15.375C110.837 15.375 108.953 15.7779 107.301 16.5929C106.452 17.0142 105.669 17.527 104.932 18.1314C104.195 18.7449 103.495 19.4592 102.851 20.2833L101.89 21.5012L100.948 20.2741C100.323 19.4683 99.651 18.7632 98.9139 18.1497C98.1862 17.5453 97.4025 17.0325 96.5628 16.6204C95.7138 16.2083 94.8275 15.897 93.9038 15.6864C92.9895 15.4757 92.0192 15.375 91.0023 15.375C89.0057 15.375 87.2331 15.6864 85.6843 16.3091C84.1449 16.9226 82.8108 17.8566 81.6632 19.102C80.5063 20.3474 79.6387 21.84 79.0602 23.5524C78.4724 25.2923 78.1739 27.2978 78.1739 29.5504H78.1459ZM135.748 29.5504V48.5242H139.685V28.3783C139.685 27.0322 139.881 25.8051 140.282 24.6879C140.693 23.5524 141.299 22.5543 142.12 21.6844C142.941 20.8053 143.911 20.1459 145.003 19.7064C146.076 19.276 147.279 19.0562 148.595 19.0562C149.91 19.0562 151.076 19.276 152.159 19.7064C153.25 20.1459 154.221 20.7961 155.06 21.666C155.9 22.5268 156.525 23.5341 156.945 24.6696C157.355 25.7868 157.561 27.023 157.561 28.3692V48.5151H161.47V28.3692C161.47 27.023 161.675 25.7868 162.076 24.6788C162.487 23.5433 163.112 22.536 163.933 21.6752C164.763 20.8053 165.724 20.1459 166.816 19.7064C167.898 19.2668 169.083 19.0562 170.389 19.0562C171.695 19.0562 172.88 19.276 173.962 19.7064C175.054 20.1459 176.015 20.8053 176.845 21.6752C177.666 22.536 178.291 23.5433 178.702 24.6788C179.103 25.7868 179.308 27.023 179.308 28.3692V48.5151H183.208V29.5413C183.208 27.2978 182.91 25.3106 182.322 23.5708C181.734 21.8583 180.866 20.3657 179.709 19.1112C178.553 17.8658 177.209 16.9226 175.679 16.3091C174.13 15.6772 172.367 15.3659 170.398 15.3659C168.43 15.3659 166.545 15.7688 164.894 16.5838C164.045 17.005 163.261 17.5178 162.524 18.1222C161.787 18.7357 161.087 19.45 160.444 20.2741L159.483 21.4921L158.54 20.265C157.915 19.4592 157.243 18.754 156.506 18.1405C155.779 17.5361 154.995 17.0233 154.155 16.6112C153.306 16.1992 152.42 15.8878 151.496 15.6772C150.582 15.4666 149.612 15.3659 148.595 15.3659C146.598 15.3659 144.826 15.6772 143.277 16.2999C141.737 16.9134 140.403 17.8475 139.256 19.0929C138.099 20.3382 137.231 21.8309 136.653 23.5433C136.065 25.2832 135.766 27.2886 135.766 29.5413L135.748 29.5504ZM223.093 40.4292C223.895 38.8908 224.511 37.1693 224.94 35.2646L220.844 34.6602C220.564 36.0246 220.154 37.2608 219.622 38.3872C218.922 39.8523 218.017 41.1252 216.888 42.2058C215.75 43.2955 214.481 44.1105 213.073 44.6599C211.664 45.2002 210.134 45.4749 208.482 45.4749C206.738 45.4749 205.114 45.1452 203.612 44.4859C202.12 43.8357 200.767 42.8559 199.563 41.5739C198.36 40.2827 197.455 38.8542 196.848 37.2608C196.242 35.6858 195.943 33.9734 195.943 32.1236C195.943 30.2739 196.242 28.5523 196.839 26.9681C197.436 25.3839 198.341 23.9462 199.535 22.6733C200.739 21.3822 202.092 20.4115 203.584 19.7613C205.077 19.1112 206.71 18.7815 208.473 18.7815C209.322 18.7815 210.162 18.8639 210.973 19.0288C211.785 19.1936 212.559 19.4408 213.306 19.7797C214.043 20.1093 214.743 20.5214 215.405 21.0067C216.067 21.4921 216.693 22.0507 217.271 22.6917L218.279 23.7814L216.963 24.5048L200.739 33.4056L202.259 36.0796L223.475 24.5506C222.757 23.2503 221.964 22.0873 221.096 21.0708C220.023 19.8071 218.829 18.7357 217.504 17.8749C216.189 17.0142 214.789 16.364 213.297 15.9336C211.804 15.5032 210.218 15.2834 208.529 15.2834C207.391 15.2834 206.29 15.3842 205.217 15.5948C204.135 15.8054 203.099 16.1168 202.092 16.5288C201.075 16.9501 200.114 17.472 199.199 18.0856C198.294 18.6991 197.436 19.4134 196.643 20.2192C195.841 21.0342 195.132 21.9041 194.516 22.829C193.9 23.7447 193.387 24.7154 192.967 25.741C192.547 26.7666 192.23 27.8106 192.015 28.882C191.801 29.9534 191.698 31.0614 191.698 32.206C191.698 33.7536 191.885 35.2371 192.249 36.6473C192.612 38.0667 193.163 39.4128 193.891 40.6948C194.628 41.9768 195.514 43.1398 196.54 44.1746C197.576 45.2185 198.761 46.1434 200.095 46.9492C200.72 47.3155 201.382 47.6543 202.073 47.9382C202.754 48.2221 203.444 48.4601 204.125 48.6525C205.544 49.0371 206.99 49.2294 208.454 49.2294C210.619 49.2294 212.606 48.8905 214.425 48.2221C216.235 47.5536 217.887 46.5463 219.38 45.2093C220.882 43.8449 222.113 42.2515 223.074 40.4109L223.093 40.4292ZM237.619 6.7672H233.645V36.7297C233.645 38.7535 233.934 40.5208 234.503 42.0043C235.053 43.442 235.884 44.6324 236.975 45.5756C238.095 46.5463 239.504 47.2697 241.211 47.7642C242.974 48.2678 245.064 48.5242 247.471 48.5242H248.376V44.9071H247.546C245.913 44.9071 244.495 44.7332 243.264 44.376C241.976 44.0006 240.913 43.4237 240.073 42.6453C239.233 41.8669 238.608 40.8688 238.207 39.6692C237.815 38.5154 237.619 37.1876 237.619 35.6675V19.5599H248.376V16.016H237.619V6.77636V6.7672ZM257.37 16.0069V48.5151H261.345V33.2316C261.345 30.8233 261.606 28.7446 262.119 26.9773C262.66 25.1366 263.481 23.6349 264.582 22.481C266.728 20.2284 270.096 19.3951 274.705 19.3584V15.6681H274.238C267.596 15.6681 263.789 17.3164 261.158 22.5909V15.9977H257.37V16.0069Z" fill="#ED4599"/>
</svg>
